<svg width="2002" height="897" viewBox="0 0 2002 897" fill="none" xmlns="http://www.w3.org/2000/svg">
<path d="M105.928 703.296C82.888 695.616 66.184 686.304 55.816 675.36C45.64 664.416 40.552 651.168 40.552 635.616C40.552 618.144 46.408 604.32 58.12 594.144C69.832 583.968 86.248 578.88 107.368 578.88C125.224 578.88 140.776 580.896 154.024 584.928C158.632 586.272 162.28 589.056 164.968 593.28C167.848 597.312 169.288 601.824 169.288 606.816V609.408C169.288 613.056 167.656 615.936 164.392 618.048C161.128 619.968 157.768 620.256 154.312 618.912C139.912 613.344 125.224 610.56 110.248 610.56C100.648 610.56 93.352 612.768 88.36 617.184C83.368 621.6 80.872 627.744 80.872 635.616C80.872 649.44 89.896 659.328 107.944 665.28C133.864 673.536 151.816 682.944 161.8 693.504C171.976 704.064 177.064 717.696 177.064 734.4C177.064 774.72 152.2 794.88 102.472 794.88C86.92 794.88 72.808 792.48 60.136 787.68C55.528 785.952 51.88 782.976 49.192 778.752C46.696 774.528 45.448 769.824 45.448 764.64V761.184C45.448 757.536 46.984 754.944 50.056 753.408C53.128 751.68 56.296 751.584 59.56 753.12C72.232 759.456 85.576 762.624 99.592 762.624C123.976 762.624 136.168 753.408 136.168 734.976C136.168 727.488 133.864 721.344 129.256 716.544C124.648 711.552 116.872 707.136 105.928 703.296ZM365.205 717.12C365.205 768.96 339.285 794.88 287.445 794.88C235.605 794.88 209.685 768.96 209.685 717.12V598.176C209.685 593.76 211.317 589.92 214.581 586.656C217.845 583.392 221.685 581.76 226.101 581.76H234.165C238.581 581.76 242.421 583.392 245.685 586.656C248.949 589.92 250.581 593.76 250.581 598.176V719.424C250.581 734.4 253.557 745.248 259.509 751.968C265.653 758.496 275.157 761.76 288.021 761.76C300.885 761.76 310.293 758.496 316.245 751.968C322.389 745.248 325.461 734.4 325.461 719.424V598.176C325.461 593.76 327.093 589.92 330.357 586.656C333.621 583.392 337.46 581.76 341.876 581.76H348.789C353.205 581.76 357.045 583.392 360.309 586.656C363.573 589.92 365.205 593.76 365.205 598.176V717.12ZM463.116 703.296C440.076 695.616 423.372 686.304 413.004 675.36C402.828 664.416 397.74 651.168 397.74 635.616C397.74 618.144 403.596 604.32 415.308 594.144C427.02 583.968 443.436 578.88 464.556 578.88C482.412 578.88 497.964 580.896 511.212 584.928C515.82 586.272 519.468 589.056 522.156 593.28C525.036 597.312 526.476 601.824 526.476 606.816V609.408C526.476 613.056 524.844 615.936 521.58 618.048C518.316 619.968 514.956 620.256 511.5 618.912C497.1 613.344 482.412 610.56 467.436 610.56C457.836 610.56 450.54 612.768 445.548 617.184C440.556 621.6 438.06 627.744 438.06 635.616C438.06 649.44 447.084 659.328 465.132 665.28C491.052 673.536 509.004 682.944 518.988 693.504C529.164 704.064 534.251 717.696 534.251 734.4C534.251 774.72 509.388 794.88 459.66 794.88C444.108 794.88 429.996 792.48 417.324 787.68C412.716 785.952 409.068 782.976 406.38 778.752C403.884 774.528 402.636 769.824 402.636 764.64V761.184C402.636 757.536 404.172 754.944 407.244 753.408C410.316 751.68 413.484 751.584 416.748 753.12C429.42 759.456 442.764 762.624 456.78 762.624C481.164 762.624 493.356 753.408 493.356 734.976C493.356 727.488 491.052 721.344 486.444 716.544C481.836 711.552 474.06 707.136 463.116 703.296ZM588.693 792C584.277 792 580.437 790.368 577.173 787.104C574.101 783.84 572.565 780 572.565 775.584V598.176C572.565 593.76 574.101 589.92 577.173 586.656C580.437 583.392 584.277 581.76 588.693 581.76H596.469C600.885 581.76 604.725 583.392 607.989 586.656C611.253 589.92 612.885 593.76 612.885 598.176V663.552C612.885 665.088 613.653 665.856 615.189 665.856H687.189C688.725 665.856 689.493 665.088 689.493 663.552V598.176C689.493 593.76 691.125 589.92 694.389 586.656C697.653 583.392 701.493 581.76 705.909 581.76H713.685C718.101 581.76 721.845 583.392 724.917 586.656C728.181 589.92 729.812 593.76 729.812 598.176V775.584C729.812 780 728.181 783.84 724.917 787.104C721.845 790.368 718.101 792 713.685 792H705.909C701.493 792 697.653 790.368 694.389 787.104C691.125 783.84 689.493 780 689.493 775.584V699.264C689.493 697.536 688.725 696.672 687.189 696.672H615.189C613.653 696.672 612.885 697.536 612.885 699.264V775.584C612.885 780 611.253 783.84 607.989 787.104C604.725 790.368 600.885 792 596.469 792H588.693ZM797.522 792C793.106 792 789.266 790.368 786.002 787.104C782.738 783.84 781.106 780 781.106 775.584V598.176C781.106 593.76 782.738 589.92 786.002 586.656C789.266 583.392 793.106 581.76 797.522 581.76H809.042C813.458 581.76 817.298 583.392 820.562 586.656C823.826 589.92 825.458 593.76 825.458 598.176V775.584C825.458 780 823.826 783.84 820.562 787.104C817.298 790.368 813.458 792 809.042 792H797.522ZM892.724 792C888.308 792 884.468 790.368 881.204 787.104C878.132 783.84 876.596 780 876.596 775.584V598.176C876.596 593.76 878.132 589.92 881.204 586.656C884.468 583.392 888.308 581.76 892.724 581.76H901.94C906.356 581.76 910.196 583.392 913.46 586.656C916.724 589.92 918.356 593.76 918.356 598.176V756C918.356 757.728 919.124 758.592 920.66 758.592H994.676C999.092 758.592 1002.84 760.224 1005.91 763.488C1009.17 766.56 1010.8 770.304 1010.8 774.72V775.584C1010.8 780 1009.17 783.84 1005.91 787.104C1002.84 790.368 999.092 792 994.676 792H892.724ZM1065.13 792C1060.71 792 1056.87 790.368 1053.61 787.104C1050.54 783.84 1049 780 1049 775.584V598.176C1049 593.76 1050.54 589.92 1053.61 586.656C1056.87 583.392 1060.71 581.76 1065.13 581.76H1074.35C1078.76 581.76 1082.6 583.392 1085.87 586.656C1089.13 589.92 1090.76 593.76 1090.76 598.176V756C1090.76 757.728 1091.53 758.592 1093.07 758.592H1167.08C1171.5 758.592 1175.24 760.224 1178.31 763.488C1181.58 766.56 1183.21 770.304 1183.21 774.72V775.584C1183.21 780 1181.58 783.84 1178.31 787.104C1175.24 790.368 1171.5 792 1167.08 792H1065.13ZM1585.55 717.12C1585.55 768.96 1559.63 794.88 1507.79 794.88C1455.95 794.88 1430.03 768.96 1430.03 717.12V598.176C1430.03 593.76 1431.66 589.92 1434.92 586.656C1438.19 583.392 1442.03 581.76 1446.44 581.76H1454.51C1458.92 581.76 1462.76 583.392 1466.03 586.656C1469.29 589.92 1470.92 593.76 1470.92 598.176V719.424C1470.92 734.4 1473.9 745.248 1479.85 751.968C1486 758.496 1495.5 761.76 1508.36 761.76C1521.23 761.76 1530.64 758.496 1536.59 751.968C1542.73 745.248 1545.8 734.4 1545.8 719.424V598.176C1545.8 593.76 1547.44 589.92 1550.7 586.656C1553.96 583.392 1557.8 581.76 1562.22 581.76H1569.13C1573.55 581.76 1577.39 583.392 1580.65 586.656C1583.92 589.92 1585.55 593.76 1585.55 598.176V717.12ZM1637.31 615.168C1632.9 615.168 1629.06 613.632 1625.79 610.56C1622.53 607.296 1620.9 603.456 1620.9 599.04V598.176C1620.9 593.76 1622.53 589.92 1625.79 586.656C1629.06 583.392 1632.9 581.76 1637.31 581.76H1760C1764.42 581.76 1768.26 583.392 1771.52 586.656C1774.78 589.92 1776.42 593.76 1776.42 598.176V599.04C1776.42 603.456 1774.78 607.296 1771.52 610.56C1768.26 613.632 1764.42 615.168 1760 615.168H1721.41C1719.87 615.168 1719.1 616.032 1719.1 617.76V775.584C1719.1 780 1717.47 783.84 1714.21 787.104C1710.94 790.368 1707.1 792 1702.69 792H1694.62C1690.21 792 1686.37 790.368 1683.1 787.104C1679.84 783.84 1678.21 780 1678.21 775.584V617.76C1678.21 616.032 1677.44 615.168 1675.9 615.168H1637.31Z" fill="black"/>
<path fill-rule="evenodd" clip-rule="evenodd" d="M1434.45 178.655L1338.56 809.837C1338.56 809.837 1340.37 816.595 1346.68 817.595C1352.99 818.595 1355.4 812.503 1355.4 812.503L1421.95 451.249L1470.96 185.231L1434.45 178.655Z" fill="#5C5C5C"/>
<path fill-rule="evenodd" clip-rule="evenodd" d="M1471.35 182.791L1434.83 176.216L1449.26 81.2774C1449.26 81.2774 1463.48 77.7758 1471.49 79.4042C1479.5 81.0326 1488.89 87.5542 1488.89 87.5542L1471.35 182.791Z" fill="#F53939"/>
<mask id="path-4-inside-1" fill="white">
<path fill-rule="evenodd" clip-rule="evenodd" d="M1418.48 662.77L1230.94 604.007L1193.45 723.66L1193.45 723.662C1193.39 723.844 1193.33 724.026 1193.27 724.209C1185.39 749.369 1220.98 782.92 1272.77 799.147C1324.56 815.374 1372.94 808.132 1380.82 782.972C1380.88 782.789 1380.93 782.605 1380.98 782.421L1380.99 782.423L1418.48 662.77Z"/>
</mask>
<path fill-rule="evenodd" clip-rule="evenodd" d="M1418.48 662.77L1230.94 604.007L1193.45 723.66L1193.45 723.662C1193.39 723.844 1193.33 724.026 1193.27 724.209C1185.39 749.369 1220.98 782.92 1272.77 799.147C1324.56 815.374 1372.94 808.132 1380.82 782.972C1380.88 782.789 1380.93 782.605 1380.98 782.421L1380.99 782.423L1418.48 662.77Z" fill="#3F453E"/>
<path d="M1230.94 604.007L1231.24 603.053L1230.28 602.754L1229.98 603.708L1230.94 604.007ZM1418.48 662.77L1419.44 663.069L1419.73 662.115L1418.78 661.816L1418.48 662.77ZM1193.45 723.66L1192.49 723.361L1192.19 724.316L1193.15 724.615L1193.45 723.66ZM1193.45 723.662L1194.4 723.984L1194.73 723.015L1193.75 722.708L1193.45 723.662ZM1380.98 782.421L1381.28 781.467L1380.31 781.161L1380.02 782.146L1380.98 782.421ZM1380.99 782.423L1380.69 783.378L1381.65 783.677L1381.95 782.722L1380.99 782.423ZM1230.64 604.962L1418.18 663.725L1418.78 661.816L1231.24 603.053L1230.64 604.962ZM1194.4 723.959L1231.89 604.306L1229.98 603.708L1192.49 723.361L1194.4 723.959ZM1193.75 722.708L1193.74 722.706L1193.15 724.615L1193.15 724.617L1193.75 722.708ZM1194.23 724.508C1194.28 724.333 1194.34 724.158 1194.4 723.984L1192.51 723.34C1192.44 723.529 1192.38 723.719 1192.32 723.91L1194.23 724.508ZM1273.07 798.192C1247.29 790.114 1225.59 777.736 1211.33 764.3C1197.02 750.812 1190.47 736.517 1194.23 724.508L1192.32 723.91C1188.2 737.061 1195.5 752.122 1209.96 765.755C1224.48 779.441 1246.47 791.952 1272.47 800.101L1273.07 798.192ZM1379.86 782.673C1376.1 794.683 1362.56 802.679 1343.11 805.591C1323.74 808.491 1298.85 806.271 1273.07 798.192L1272.47 800.101C1298.48 808.25 1323.68 810.522 1343.41 807.568C1363.07 804.626 1377.65 796.422 1381.77 783.271L1379.86 782.673ZM1380.02 782.146C1379.97 782.322 1379.92 782.498 1379.86 782.673L1381.77 783.271C1381.83 783.08 1381.89 782.889 1381.95 782.697L1380.02 782.146ZM1381.29 781.469L1381.28 781.467L1380.69 783.376L1380.69 783.378L1381.29 781.469ZM1417.53 662.471L1380.04 782.124L1381.95 782.722L1419.44 663.069L1417.53 662.471Z" fill="#1A2E1E" fill-opacity="0.43" mask="url(#path-4-inside-1)"/>
<ellipse cx="1324.54" cy="633.938" rx="98.2678" ry="47.7398" transform="rotate(17.3972 1324.54 633.938)" fill="white"/>
<path d="M1417.83 663.169C1413.98 675.464 1400.18 683.513 1380.68 686.432C1361.21 689.345 1336.25 687.112 1310.41 679.016C1284.57 670.92 1262.8 658.509 1248.48 645.011C1234.13 631.486 1227.39 617 1231.24 604.705C1235.09 592.411 1248.9 584.362 1268.4 581.443C1287.86 578.53 1312.82 580.763 1338.66 588.859C1364.5 596.955 1386.27 609.366 1400.59 622.864C1414.94 636.389 1421.68 650.875 1417.83 663.169Z" stroke="#1A2E1E" stroke-opacity="0.43"/>
<ellipse cx="1324.54" cy="633.938" rx="78.6142" ry="38.537" transform="rotate(17.3972 1324.54 633.938)" fill="#ED8686"/>
<path d="M1289.26 605.403L1248.56 617.364C1253.03 603.094 1291.94 602.629 1295.01 600.576C1298.08 598.523 1320.73 617.074 1347.18 623.551C1368.33 628.732 1385.2 630.441 1390.99 630.649L1393.44 634.43C1389.15 633.288 1380.19 631.483 1378.62 633.402C1376.65 635.801 1311.23 626.15 1309.64 619.625C1308.37 614.404 1295.52 607.969 1289.26 605.403Z" fill="white" fill-opacity="0.4"/>
<path d="M1305.85 631.7C1291.7 618.103 1264.48 624.562 1252.63 629.491C1296.54 622.755 1317.69 648.065 1334.51 658.16C1347.98 666.235 1382.03 648.937 1397.37 639.279C1395.72 638.76 1391.47 638.394 1387.72 641.077C1383.04 644.431 1323.55 648.696 1305.85 631.7Z" fill="white" fill-opacity="0.4"/>
<path d="M1322.94 664.176C1312.4 656.052 1286.92 650.882 1275.5 649.313C1272.87 651.905 1274.47 652.606 1269.43 647.412C1264.4 642.217 1335.48 660.874 1346.93 666.872C1358.38 672.869 1400.13 640.143 1400.1 647.969C1400.07 655.796 1388.67 661.264 1383.12 667.362C1377.58 673.46 1336.11 674.331 1322.94 664.176Z" fill="white" fill-opacity="0.4"/>
<path fill-rule="evenodd" clip-rule="evenodd" d="M1574.35 244.725L1205.48 765.796C1205.48 765.796 1204.06 772.647 1209.25 776.373C1214.45 780.099 1219.33 775.733 1219.33 775.733L1440.89 482.738L1604.04 266.984L1574.35 244.725Z" fill="#5C5C5C"/>
<path fill-rule="evenodd" clip-rule="evenodd" d="M1605.48 264.977L1575.79 242.718L1631.28 164.342C1631.28 164.342 1645.56 167.591 1651.99 172.641C1658.42 177.691 1663.89 187.735 1663.89 187.735L1605.48 264.977Z" fill="#F53939"/>
<path d="M1618.87 468.152V513.512C1618.87 514.28 1619.3 514.76 1620.17 514.952C1625.35 515.816 1630.87 516.248 1636.73 516.248C1659.19 516.248 1670.42 507.608 1670.42 490.328C1670.42 483.128 1667.26 477.464 1660.92 473.336C1654.68 469.112 1645.18 467 1632.41 467H1620.17C1619.3 467 1618.87 467.384 1618.87 468.152ZM1618.87 423.368V459.656C1618.87 460.52 1619.3 460.952 1620.17 460.952H1632.41C1643.26 460.952 1651.46 459.176 1657.03 455.624C1662.6 451.976 1665.38 446.792 1665.38 440.072C1665.38 427.112 1655.35 420.632 1635.29 420.632C1630.1 420.632 1625.06 421.064 1620.17 421.928C1619.3 422.12 1618.87 422.6 1618.87 423.368ZM1619.74 521.432C1617.43 521.144 1615.51 520.088 1613.98 518.264C1612.44 516.44 1611.67 514.328 1611.67 511.928V424.952C1611.67 422.552 1612.44 420.44 1613.98 418.616C1615.51 416.792 1617.48 415.736 1619.88 415.448C1625.74 414.776 1630.87 414.44 1635.29 414.44C1659.86 414.44 1672.15 422.744 1672.15 439.352C1672.15 445.4 1670.28 450.488 1666.54 454.616C1662.79 458.744 1657.51 461.624 1650.7 463.256C1650.5 463.256 1650.41 463.352 1650.41 463.544C1650.41 463.64 1650.5 463.688 1650.7 463.688C1659.14 465.128 1665.72 468.344 1670.42 473.336C1675.13 478.328 1677.48 484.136 1677.48 490.76C1677.48 500.072 1674.36 507.704 1668.12 513.656C1661.88 519.512 1651.42 522.44 1636.73 522.44C1630.49 522.44 1624.82 522.104 1619.74 521.432ZM1702.52 519.992C1701.85 520.664 1700.98 521 1699.93 521C1698.87 521 1698.01 520.664 1697.34 519.992C1696.66 519.32 1696.33 518.456 1696.33 517.4V419.48C1696.33 418.424 1696.66 417.56 1697.34 416.888C1698.01 416.216 1698.87 415.88 1699.93 415.88C1700.98 415.88 1701.85 416.216 1702.52 416.888C1703.19 417.56 1703.53 418.424 1703.53 419.48V459.656C1703.53 460.52 1703.96 460.952 1704.82 460.952H1757.53C1758.39 460.952 1758.82 460.52 1758.82 459.656V419.48C1758.82 418.424 1759.16 417.56 1759.83 416.888C1760.5 416.216 1761.37 415.88 1762.42 415.88C1763.48 415.88 1764.34 416.216 1765.02 416.888C1765.69 417.56 1766.02 418.424 1766.02 419.48V517.4C1766.02 518.456 1765.69 519.32 1765.02 519.992C1764.34 520.664 1763.48 521 1762.42 521C1761.37 521 1760.5 520.664 1759.83 519.992C1759.16 519.32 1758.82 518.456 1758.82 517.4V468.152C1758.82 467.384 1758.39 467 1757.53 467H1704.82C1703.96 467 1703.53 467.384 1703.53 468.152V517.4C1703.53 518.456 1703.19 519.32 1702.52 519.992Z" fill="black"/>
</svg>
