<svg width="254" height="270" viewBox="0 0 254 270" fill="none" xmlns="http://www.w3.org/2000/svg">
<mask id="path-1-inside-1" fill="white">
<path fill-rule="evenodd" clip-rule="evenodd" d="M239.482 103.77L51.9368 45.0071L14.4462 164.66L14.4529 164.662C14.3912 164.843 14.3316 165.026 14.2742 165.209C6.39094 190.369 41.9837 223.919 93.7728 240.146C145.562 256.373 193.936 249.132 201.819 223.972C201.877 223.789 201.932 223.605 201.985 223.421L201.991 223.423L239.482 103.77Z"/>
</mask>
<path fill-rule="evenodd" clip-rule="evenodd" d="M239.482 103.77L51.9368 45.0071L14.4462 164.66L14.4529 164.662C14.3912 164.843 14.3316 165.026 14.2742 165.209C6.39094 190.369 41.9837 223.919 93.7728 240.146C145.562 256.373 193.936 249.132 201.819 223.972C201.877 223.789 201.932 223.605 201.985 223.421L201.991 223.423L239.482 103.77Z" fill="#3F453E"/>
<path d="M51.9368 45.0071L52.2358 44.0528L51.2815 43.7538L50.9825 44.7081L51.9368 45.0071ZM239.482 103.77L240.436 104.069L240.735 103.115L239.781 102.816L239.482 103.77ZM14.4462 164.66L13.4919 164.361L13.193 165.315L14.1472 165.614L14.4462 164.66ZM14.4529 164.662L15.3996 164.984L15.7296 164.014L14.7519 163.708L14.4529 164.662ZM201.985 223.421L202.284 222.467L201.306 222.16L201.023 223.145L201.985 223.421ZM201.991 223.423L201.692 224.377L202.647 224.676L202.946 223.722L201.991 223.423ZM51.6378 45.9613L239.183 104.724L239.781 102.816L52.2358 44.0528L51.6378 45.9613ZM15.4005 164.959L52.891 45.3061L50.9825 44.7081L13.4919 164.361L15.4005 164.959ZM14.7519 163.708L14.7452 163.706L14.1472 165.614L14.1539 165.616L14.7519 163.708ZM15.2285 165.508C15.2835 165.332 15.3405 165.158 15.3996 164.984L13.5062 164.34C13.4419 164.529 13.3798 164.719 13.32 164.91L15.2285 165.508ZM94.0718 239.192C68.2895 231.114 46.5864 218.736 32.3323 205.3C18.0229 191.811 11.4656 177.517 15.2285 165.508L13.32 164.91C9.19952 178.061 16.497 193.122 30.9604 206.755C45.4792 220.441 67.467 232.952 93.4738 241.101L94.0718 239.192ZM200.865 223.673C197.102 235.682 183.561 243.679 164.113 246.59C144.74 249.49 119.854 247.27 94.0718 239.192L93.4738 241.101C119.481 249.249 144.676 251.522 164.409 248.568C184.066 245.626 198.653 237.422 202.774 224.271L200.865 223.673ZM201.023 223.145C200.973 223.322 200.92 223.498 200.865 223.673L202.774 224.271C202.833 224.08 202.891 223.889 202.946 223.697L201.023 223.145ZM202.29 222.469L202.284 222.467L201.686 224.375L201.692 224.377L202.29 222.469ZM238.528 103.471L201.037 223.124L202.946 223.722L240.436 104.069L238.528 103.471Z" fill="#1A2E1E" fill-opacity="0.43" mask="url(#path-1-inside-1)"/>
<ellipse cx="145.537" cy="74.9375" rx="98.2678" ry="47.7398" transform="rotate(17.3972 145.537 74.9375)" fill="white"/>
<path d="M238.833 104.169C234.98 116.464 221.177 124.513 201.677 127.432C182.214 130.345 157.251 128.112 131.413 120.016C105.574 111.92 83.8 99.5093 69.4797 86.0107C55.1319 72.486 48.3895 58.0001 52.2418 45.7055C56.094 33.4109 69.897 25.3623 89.3972 22.4432C108.86 19.5296 133.823 21.7627 159.662 29.8586C185.5 37.9545 207.274 50.3656 221.595 63.8642C235.942 77.3889 242.685 91.8749 238.833 104.169Z" stroke="#1A2E1E" stroke-opacity="0.43"/>
<ellipse cx="145.537" cy="74.9375" rx="78.6142" ry="38.537" transform="rotate(17.3972 145.537 74.9375)" fill="#ED8686"/>
<path d="M110.257 46.4035L69.5585 58.3643C74.0299 44.0937 112.944 43.6288 116.01 41.5758C119.077 39.5228 141.734 58.0744 168.176 64.5509C189.329 69.7321 206.198 71.4416 211.989 71.6487L214.439 75.43C210.153 74.2879 201.187 72.4834 199.617 74.4024C197.654 76.801 132.227 67.1506 130.637 60.6249C129.365 55.4044 116.521 48.9688 110.257 46.4035Z" fill="white" fill-opacity="0.4"/>
<path d="M126.854 72.7C112.699 59.1031 85.4761 65.5618 73.6338 70.4907C117.542 63.7547 138.687 89.0655 155.514 99.1599C168.976 107.235 203.028 89.9372 218.372 80.2787C216.717 79.7602 212.47 79.394 208.722 82.0771C204.036 85.4311 144.547 89.6961 126.854 72.7Z" fill="white" fill-opacity="0.4"/>
<path d="M143.937 105.176C133.398 97.0524 107.921 91.8824 96.4993 90.3129C93.87 92.9046 95.4675 93.6061 90.4317 88.4117C85.3959 83.2174 156.481 101.874 167.929 107.872C179.376 113.869 221.13 81.1428 221.1 88.9694C221.071 96.796 209.666 102.264 204.12 108.362C198.575 114.46 157.111 115.332 143.937 105.176Z" fill="white" fill-opacity="0.4"/>
</svg>
