<svg width="25" height="24" viewBox="0 0 25 24" fill="none" xmlns="http://www.w3.org/2000/svg">
<path d="M21.2556 3.47037C18.9174 1.23142 15.8036 0 12.4944 0C5.66406 0 0.106027 5.30951 0.106027 11.8344C0.106027 13.9188 0.675223 15.9552 1.75781 17.7517L0 23.8821L6.56808 22.2349C8.37612 23.1784 10.4129 23.6742 12.4888 23.6742H12.4944C19.3192 23.6742 25 18.3647 25 11.8398C25 8.67859 23.5937 5.70932 21.2556 3.47037V3.47037ZM12.4944 21.6805C10.6417 21.6805 8.82812 21.206 7.24888 20.3105L6.875 20.0972L2.97991 21.0728L4.01786 17.4425L3.77232 17.0693C2.73996 15.5021 2.19866 13.6949 2.19866 11.8344C2.19866 6.41299 6.8192 1.99906 12.5 1.99906C15.2511 1.99906 17.8348 3.02258 19.7768 4.88304C21.7187 6.7435 22.9129 9.21167 22.9074 11.8398C22.9074 17.2666 18.1696 21.6805 12.4944 21.6805V21.6805ZM18.1417 14.3133C17.8348 14.164 16.3114 13.4497 16.0268 13.3537C15.7422 13.2524 15.5357 13.2045 15.3292 13.503C15.1228 13.8015 14.5313 14.4625 14.3471 14.6651C14.1685 14.8624 13.9844 14.889 13.6775 14.7397C11.8583 13.8708 10.6641 13.1885 9.46429 11.2214C9.14621 10.699 9.78237 10.7363 10.3739 9.60615C10.4743 9.40891 10.4241 9.23833 10.346 9.08906C10.2679 8.9398 9.64844 7.48448 9.39174 6.89276C9.14063 6.31703 8.88393 6.39699 8.6942 6.38633C8.51563 6.37567 8.30915 6.37567 8.10268 6.37567C7.89621 6.37567 7.56138 6.4503 7.27679 6.7435C6.99219 7.04203 6.1942 7.75636 6.1942 9.21167C6.1942 10.667 7.30469 12.0743 7.45536 12.2716C7.61161 12.4688 9.63728 15.4541 12.7455 16.7388C14.7098 17.5491 15.4799 17.6184 16.4621 17.4798C17.0592 17.3945 18.2924 16.7655 18.5491 16.0724C18.8058 15.3794 18.8058 14.7877 18.7277 14.6651C18.6551 14.5318 18.4487 14.4572 18.1417 14.3133Z" fill="black"/>
</svg>
